<svg width="32" height="28" viewBox="0 0 32 28" fill="none" xmlns="http://www.w3.org/2000/svg">
<path d="M3.97318 26.3856V1.49194C12.3458 1.49194 29.0911 5.64088 29.0911 13.9388C29.0911 22.2366 29.0911 26.3856 3.97318 26.3856Z" fill="#2B2200"/>
<path fill-rule="evenodd" clip-rule="evenodd" d="M2.48126 0H3.97318C8.3434 0 14.8098 1.07128 20.2217 3.21671C22.9285 4.28978 25.4659 5.66808 27.3508 7.39248C29.2457 9.12596 30.583 11.3119 30.583 13.9387L30.583 14.0598C30.5832 16.0385 30.5834 18.0122 30.1452 19.7491C29.6719 21.6254 28.6873 23.2543 26.7738 24.5186C24.936 25.7328 22.3284 26.5526 18.7112 27.0837C15.0746 27.6177 10.2823 27.8775 3.97318 27.8775H2.48126V0ZM5.46509 3.02535V24.8885C10.9672 24.85 15.1285 24.5939 18.2777 24.1315C21.7249 23.6254 23.8269 22.8893 25.1289 22.0291C26.3551 21.2189 26.9404 20.2548 27.252 19.0193C27.5899 17.68 27.5992 16.0685 27.5992 13.9387C27.5992 12.4167 26.8433 10.9722 25.3368 9.59402C23.8203 8.20672 21.6481 6.99193 19.1221 5.99053C14.6618 4.22236 9.39261 3.23331 5.46509 3.02535Z" fill="#BDAE7D"/>
<path d="M16.3923 22.9703L14.4373 17.9575H6.31656L4.36156 22.9202L2.33136 22.0931L9.19893 5.1748H11.8056L18.5729 22.0931L16.3923 22.9703ZM7.06848 15.9524H13.6604L10.377 7.53083L7.06848 15.9524Z" fill="#DC7A3B"/>
<path fill-rule="evenodd" clip-rule="evenodd" d="M15.3818 25.3066L13.2139 19.7478H7.53548L5.3634 25.2616L0 23.0765L7.99347 3.38451H10.0824L10.3833 2.61853L10.6819 3.38451H13.0177L20.8987 23.0872L15.3818 25.3066ZM9.19892 5.1748L2.33135 22.0931L4.36154 22.9202L6.31654 17.9575H14.4373L16.3923 22.9703L18.5729 22.0931L11.8056 5.1748H9.19892ZM10.3769 7.53084L7.06847 15.9524H13.6603L10.3769 7.53084ZM10.3706 12.4431L9.69529 14.1621H11.0408L10.3706 12.4431Z" fill="#2B2200"/>
<path d="M18.5298 22.7197V5.22495C19.2149 5.1414 19.9668 5.08292 20.7856 5.0495C21.6211 4.99937 22.4816 4.9743 23.3672 4.9743C24.8209 4.9743 26.0574 5.20824 27.0767 5.6761C28.096 6.12725 28.873 6.75386 29.4077 7.55591C29.9424 8.35796 30.2097 9.27698 30.2097 10.313C30.2097 11.5662 29.9006 12.6272 29.2823 13.4961C28.6641 14.365 27.8035 15.0334 26.7007 15.5012C25.5979 15.9524 24.3196 16.178 22.8659 16.178C22.1641 16.178 21.5124 16.1529 20.9109 16.1028V22.7197H18.5298ZM23.1667 14.1979C24.6538 14.1979 25.8068 13.8637 26.6255 13.1953C27.4443 12.527 27.8537 11.633 27.8537 10.5135C27.8537 9.42737 27.461 8.56683 26.6757 7.93187C25.8903 7.29691 24.7708 6.97944 23.3171 6.97944C22.8659 6.97944 22.4398 6.98779 22.0388 7.0045C21.6378 7.02121 21.2618 7.04627 20.9109 7.07969V14.0726C21.1783 14.106 21.5041 14.1394 21.8884 14.1728C22.2727 14.1896 22.6988 14.1979 23.1667 14.1979Z" fill="#DC7A3B"/>
<path fill-rule="evenodd" clip-rule="evenodd" d="M16.7395 24.51V3.63973L18.3131 3.44783C19.0488 3.35811 19.8437 3.29656 20.6955 3.26141C21.5632 3.2097 22.4539 3.18402 23.3672 3.18402C25.0008 3.18402 26.5029 3.44527 27.8124 4.04392C29.088 4.61062 30.1481 5.43903 30.8973 6.56284C31.6429 7.68121 32 8.95123 32 10.313C32 11.8712 31.6109 13.3116 30.7411 14.5341C29.908 15.7049 28.7689 16.5686 27.3999 17.1494L27.3893 17.1539L27.3786 17.1583C26.0189 17.7145 24.5024 17.9683 22.8659 17.9683C22.8108 17.9683 22.7559 17.9681 22.7012 17.9678V24.51H16.7395ZM20.9109 16.1028C21.4651 16.149 22.0619 16.1739 22.7012 16.1775C22.7558 16.1778 22.8107 16.178 22.8659 16.178C24.3196 16.178 25.5979 15.9524 26.7007 15.5013C27.8036 15.0334 28.6641 14.365 29.2823 13.4961C29.9006 12.6272 30.2097 11.5662 30.2097 10.313C30.2097 9.27699 29.9424 8.35797 29.4077 7.55592C28.873 6.75387 28.096 6.12727 27.0767 5.67611C26.0574 5.20825 24.8209 4.97432 23.3672 4.97432C22.4816 4.97432 21.6211 4.99938 20.7856 5.04951C19.9668 5.08293 19.2149 5.14141 18.5298 5.22496V22.7197H20.9109V16.1028ZM23.1667 12.4076C24.4065 12.4076 25.1024 12.1277 25.4934 11.8085C25.8681 11.5026 26.0634 11.1319 26.0634 10.5135C26.0634 9.92126 25.88 9.5908 25.5501 9.32407C25.1973 9.03881 24.5366 8.76974 23.3171 8.76974C23.1049 8.76974 22.8997 8.77169 22.7012 8.77553V12.4045C22.8502 12.4066 23.0054 12.4076 23.1667 12.4076ZM20.9109 14.0726V7.0797C21.2618 7.04629 21.6378 7.02122 22.0388 7.00451C22.4398 6.9878 22.8659 6.97945 23.3171 6.97945C24.7708 6.97945 25.8903 7.29693 26.6757 7.93188C27.461 8.56684 27.8537 9.42738 27.8537 10.5135C27.8537 11.633 27.4443 12.527 26.6255 13.1954C25.8068 13.8637 24.6538 14.1979 23.1667 14.1979C22.6988 14.1979 22.2727 14.1896 21.8884 14.1729C21.5041 14.1394 21.1783 14.106 20.9109 14.0726Z" fill="#2B2200"/>
</svg>
