<svg width="16" height="16" viewBox="0 0 16 16" fill="none" xmlns="http://www.w3.org/2000/svg">
<path d="M2 14V2C6 2 14 4 14 8C14 12 14 14 2 14Z" fill="#2B2200" stroke="#BDAE7D" stroke-width="2"/>
<path d="M7.994 13.14L6.902 10.34H2.366L1.274 13.112L0.14 12.65L3.976 3.2H5.432L9.212 12.65L7.994 13.14ZM2.786 9.22H6.468L4.634 4.516L2.786 9.22Z" fill="#DC7A3B"/>
<path d="M7.994 13.14L7.06235 13.5033L7.42957 14.445L8.36723 14.0677L7.994 13.14ZM6.902 10.34L7.83365 9.97665L7.58536 9.34H6.902V10.34ZM2.366 10.34V9.34H1.68514L1.43559 9.97348L2.366 10.34ZM1.274 13.112L0.896703 14.0381L1.83361 14.4198L2.20441 13.4785L1.274 13.112ZM0.14 12.65L-0.786571 12.2739L-1.16221 13.1993L-0.237297 13.5761L0.14 12.65ZM3.976 3.2V2.2H3.30268L3.04943 2.82388L3.976 3.2ZM5.432 3.2L6.36048 2.82861L6.10903 2.2H5.432V3.2ZM9.212 12.65L9.58523 13.5777L10.5111 13.2052L10.1405 12.2786L9.212 12.65ZM2.786 9.22L1.85525 8.85435L1.31874 10.22H2.786V9.22ZM6.468 9.22V10.22H7.9312L7.39969 8.85675L6.468 9.22ZM4.634 4.516L5.56569 4.15275L4.63754 1.77215L3.70325 4.15035L4.634 4.516ZM8.92566 12.7767L7.83365 9.97665L5.97035 10.7033L7.06235 13.5033L8.92566 12.7767ZM6.902 9.34H2.366V11.34H6.902V9.34ZM1.43559 9.97348L0.343592 12.7455L2.20441 13.4785L3.29641 10.7065L1.43559 9.97348ZM1.6513 12.1859L0.517297 11.7239L-0.237297 13.5761L0.896703 14.0381L1.6513 12.1859ZM1.06657 13.0261L4.90257 3.57612L3.04943 2.82388L-0.786571 12.2739L1.06657 13.0261ZM3.976 4.2H5.432V2.2H3.976V4.2ZM4.50352 3.57139L8.28352 13.0214L10.1405 12.2786L6.36048 2.82861L4.50352 3.57139ZM8.83877 11.7223L7.62077 12.2123L8.36723 14.0677L9.58523 13.5777L8.83877 11.7223ZM2.786 10.22H6.468V8.22H2.786V10.22ZM7.39969 8.85675L5.56569 4.15275L3.70231 4.87925L5.53631 9.58325L7.39969 8.85675ZM3.70325 4.15035L1.85525 8.85435L3.71675 9.58565L5.56475 4.88165L3.70325 4.15035Z" fill="#2B2200"/>
<path d="M8.78941 13V3.228C9.17208 3.18133 9.59208 3.14867 10.0494 3.13C10.5161 3.102 10.9967 3.088 11.4914 3.088C12.3034 3.088 12.9941 3.21867 13.5634 3.48C14.1327 3.732 14.5667 4.082 14.8654 4.53C15.1641 4.978 15.3134 5.49133 15.3134 6.07C15.3134 6.77 15.1407 7.36267 14.7954 7.848C14.4501 8.33333 13.9694 8.70667 13.3534 8.968C12.7374 9.22 12.0234 9.346 11.2114 9.346C10.8194 9.346 10.4554 9.332 10.1194 9.304V13H8.78941ZM11.3794 8.24C12.2101 8.24 12.8541 8.05333 13.3114 7.68C13.7687 7.30667 13.9974 6.80733 13.9974 6.182C13.9974 5.57533 13.7781 5.09467 13.3394 4.74C12.9007 4.38533 12.2754 4.208 11.4634 4.208C11.2114 4.208 10.9734 4.21267 10.7494 4.222C10.5254 4.23133 10.3154 4.24533 10.1194 4.264V8.17C10.2687 8.18867 10.4507 8.20733 10.6654 8.226C10.8801 8.23533 11.1181 8.24 11.3794 8.24Z" fill="#DC7A3B"/>
<path d="M8.78941 13H7.78941V14H8.78941V13ZM8.78941 3.228L8.66836 2.23535L7.78941 2.34254V3.228H8.78941ZM10.0494 3.13L10.0902 4.12917L10.0998 4.12878L10.1093 4.1282L10.0494 3.13ZM13.5634 3.48L13.1462 4.38891L13.1587 4.39443L13.5634 3.48ZM14.8654 4.53L14.0334 5.0847L14.0334 5.0847L14.8654 4.53ZM14.7954 7.848L15.6102 8.42775L15.6102 8.42775L14.7954 7.848ZM13.3534 8.968L13.7321 9.89362L13.744 9.88858L13.3534 8.968ZM10.1194 9.304L10.2025 8.30745L9.11941 8.2172V9.304H10.1194ZM10.1194 13V14H11.1194V13H10.1194ZM13.3114 7.68L12.679 6.90534L12.679 6.90534L13.3114 7.68ZM13.3394 4.74L13.9681 3.96237L13.3394 4.74ZM10.7494 4.222L10.7078 3.22287L10.7078 3.22287L10.7494 4.222ZM10.1194 4.264L10.0246 3.2685L9.11941 3.35471V4.264H10.1194ZM10.1194 8.17H9.11941V9.05278L9.99538 9.16228L10.1194 8.17ZM10.6654 8.226L10.5788 9.22224L10.6003 9.22412L10.622 9.22506L10.6654 8.226ZM9.78941 13V3.228H7.78941V13H9.78941ZM8.91047 4.22065C9.2621 4.17776 9.6549 4.14693 10.0902 4.12917L10.0086 2.13083C9.52926 2.1504 9.08206 2.1849 8.66836 2.23535L8.91047 4.22065ZM10.1093 4.1282C10.5549 4.10147 11.0156 4.088 11.4914 4.088V2.088C10.9779 2.088 10.4772 2.10253 9.98952 2.13179L10.1093 4.1282ZM11.4914 4.088C12.2004 4.088 12.7405 4.20258 13.1462 4.38883L13.9806 2.57117C13.2477 2.23476 12.4065 2.088 11.4914 2.088V4.088ZM13.1587 4.39443C13.582 4.58182 13.8557 4.81824 14.0334 5.0847L15.6975 3.9753C15.2778 3.34576 14.6835 2.88218 13.9682 2.56557L13.1587 4.39443ZM14.0334 5.0847C14.2142 5.35602 14.3134 5.67329 14.3134 6.07H16.3134C16.3134 5.30937 16.1139 4.59998 15.6975 3.9753L14.0334 5.0847ZM14.3134 6.07C14.3134 6.59965 14.1854 6.98038 13.9806 7.26824L15.6102 8.42775C16.096 7.74496 16.3134 6.94035 16.3134 6.07H14.3134ZM13.9806 7.26824C13.7553 7.58493 13.4302 7.84914 12.9629 8.04742L13.744 9.88858C14.5086 9.56419 15.1449 9.08174 15.6102 8.42775L13.9806 7.26824ZM12.9748 8.04245C12.5023 8.23576 11.9214 8.346 11.2114 8.346V10.346C12.1255 10.346 12.9726 10.2042 13.732 9.89355L12.9748 8.04245ZM11.2114 8.346C10.8428 8.346 10.5068 8.33282 10.2025 8.30745L10.0364 10.3005C10.404 10.3312 10.796 10.346 11.2114 10.346V8.346ZM9.11941 9.304V13H11.1194V9.304H9.11941ZM10.1194 12H8.78941V14H10.1194V12ZM11.3794 9.24C12.3482 9.24 13.2475 9.02302 13.9438 8.45466L12.679 6.90534C12.4606 7.08364 12.0719 7.24 11.3794 7.24V9.24ZM13.9438 8.45466C14.6491 7.87886 14.9974 7.08722 14.9974 6.182H12.9974C12.9974 6.52744 12.8883 6.73448 12.679 6.90534L13.9438 8.45466ZM14.9974 6.182C14.9974 5.29947 14.6612 4.52272 13.9681 3.96237L12.7107 5.51763C12.895 5.66661 12.9974 5.8512 12.9974 6.182H14.9974ZM13.9681 3.96237C13.2879 3.41237 12.4062 3.208 11.4634 3.208V5.208C12.1446 5.208 12.5136 5.35829 12.7107 5.51763L13.9681 3.96237ZM11.4634 3.208C11.1992 3.208 10.9472 3.21289 10.7078 3.22287L10.791 5.22113C10.9996 5.21244 11.2236 5.208 11.4634 5.208V3.208ZM10.7078 3.22287C10.4684 3.23284 10.2405 3.24794 10.0246 3.2685L10.2142 5.2595C10.3903 5.24272 10.5824 5.22983 10.791 5.22113L10.7078 3.22287ZM9.11941 4.264V8.17H11.1194V4.264H9.11941ZM9.99538 9.16228C10.1612 9.183 10.3565 9.20291 10.5788 9.22224L10.752 7.22976C10.545 7.21176 10.3763 7.19433 10.2434 7.17772L9.99538 9.16228ZM10.622 9.22506C10.8538 9.23514 11.1066 9.24 11.3794 9.24V7.24C11.1296 7.24 10.9064 7.23553 10.7088 7.22694L10.622 9.22506Z" fill="#2B2200"/>
</svg>
