<svg width="16" height="16" viewBox="0 0 16 16" fill="none" xmlns="http://www.w3.org/2000/svg">
<g clip-path="url(#clip0_305_233)">
<path fill-rule="evenodd" clip-rule="evenodd" d="M5.78085 13.2807H7.50391V11.669H5.78085V13.2807ZM3.2002 13.2807H4.92326V11.669H3.2002V13.2807ZM10.9425 10.7626H12.6657V9.15092H10.9425V10.7626ZM8.36167 10.7626H10.0847V9.15092H8.36167V10.7626ZM5.78075 10.7626H7.50381V9.15092H5.78075V10.7626ZM3.2001 10.7626H4.92316V9.15092H3.2001V10.7626ZM10.9424 8.2443H12.6656V6.6328H10.9424V8.2443ZM8.36157 8.2443H10.0846V6.6328H8.36157V8.2443ZM5.78065 8.2443H7.50371V6.6328H5.78065V8.2443ZM3.19999 8.2443H4.92305V6.6328H3.19999V8.2443ZM13.043 14.8488H2.95696C2.0052 14.8488 1.23074 14.1248 1.23074 13.2347V5.18002H14.7689V13.2347C14.7689 14.1248 13.9947 14.8488 13.0429 14.8488H13.043ZM13.043 1.03598H12.5541V0H11.323V1.03598H4.67683V0H3.44595V1.03598H2.95682C1.32646 1.03598 0 2.27656 0 3.8015V13.2346C0 14.7593 1.32646 16 2.95682 16H13.0429C14.6733 16 16 14.7593 16 13.2346V3.8015C16 2.27656 14.6733 1.03598 13.0429 1.03598H13.043Z" fill="#BDAE7D"/>
</g>
<defs>
<clipPath id="clip0_305_233">
<rect width="16" height="16" fill="white"/>
</clipPath>
</defs>
</svg>
