<svg width="16" height="16" viewBox="0 0 16 16" fill="none" xmlns="http://www.w3.org/2000/svg">
<g clip-path="url(#clip0_305_375)">
<path d="M11.8555 14.291C11.8555 14.4636 11.7206 14.5844 11.5688 14.5844H1.66954C1.50085 14.5844 1.38287 14.4463 1.38287 14.291V5.29853H7.33593L11.1304 1.41504H1.68642C0.75886 1.41504 0 2.19171 0 3.14104V14.2737C0 15.2231 0.75886 15.9997 1.68642 15.9997H11.5688C12.4964 15.9997 13.2553 15.2231 13.2553 14.2737V6.40317L11.8555 7.83566L11.8555 14.291Z" fill="#BDAE7D"/>
<path d="M5.295 10.597C5.26124 10.8041 5.44675 10.994 5.66602 10.9595L7.65593 10.7007C7.97638 10.6661 8.26304 10.5108 8.48231 10.2864L8.58348 10.1829L6.07077 7.59375L5.9696 7.69741C5.75033 7.92183 5.59859 8.23244 5.56483 8.54318L5.295 10.597Z" fill="#BDAE7D"/>
<path d="M15.7852 1.67421L14.3686 0.241634C14.2169 0.0863215 14.0144 0 13.8121 0C13.6098 0 13.4074 0.0689875 13.2725 0.241634L6.56055 7.11111L9.07334 9.68287L15.7853 2.8134C16.072 2.50266 16.072 1.98483 15.7853 1.67421H15.7852Z" fill="#BDAE7D"/>
</g>
<defs>
<clipPath id="clip0_305_375">
<rect width="16.0003" height="16" fill="white"/>
</clipPath>
</defs>
</svg>
