<svg width="1920" height="200" viewBox="0 0 1920 200" fill="none" xmlns="http://www.w3.org/2000/svg">
<path d="M0 111.274L8.26667 122.364C16.4 133.455 33.3333 155.637 49.3333 148.22C65.6 141.08 82.6667 103.649 98.6667 81.6749C114.933 59.2854 130.667 52.3536 148 44.7287C164.133 37.1037 180 30.172 197.333 48.4025C213.333 66.9103 229.333 111.274 246.667 133.455C262.533 155.637 278.667 155.637 296 151.963C311.733 148.012 328 141.08 344 140.872C361.067 141.08 377.333 148.012 393.333 133.455C410.267 118.898 426.667 81.467 442.667 81.6749C459.467 81.467 476 118.898 492 133.455C508.667 148.012 525.333 141.08 541.333 122.364C558 103.649 574.667 74.5352 590.667 81.6749C607.2 89.0919 624 133.455 640 137.129C656.4 141.08 673.333 103.649 689.333 103.857C705.6 103.649 722.667 141.08 738.667 148.22C754.933 155.637 770.667 133.455 788 129.781C804.133 125.83 820 141.08 837.333 126.038C853.333 111.274 869.333 66.9103 886.667 55.8195C902.533 44.7287 918.667 66.9103 936 63.2365C951.733 59.2854 968 30.172 984 41.0548C1001.07 52.3536 1017.33 103.649 1033.33 126.038C1050.27 148.012 1066.67 141.08 1082.67 129.781C1099.47 118.898 1116 103.649 1132 111.274C1148.67 118.898 1165.33 148.012 1181.33 159.311C1198 170.193 1214.67 163.262 1230.67 137.129C1247.2 111.274 1264 66.9103 1280 52.1456C1296.4 37.1037 1313.33 52.3536 1329.33 81.6749C1345.6 111.274 1362.67 155.637 1378.67 144.546C1394.93 133.455 1410.67 66.9103 1428 59.4933C1444.13 52.3536 1460 103.649 1477.33 118.69C1493.33 133.455 1509.33 111.274 1526.67 81.6749C1542.53 52.3536 1558.67 14.9221 1576 4.03928C1591.73 -7.25948 1608 7.99038 1624 15.1301C1641.07 22.5471 1657.33 22.5471 1673.33 15.1301C1690.27 7.99038 1706.67 -7.25948 1722.67 4.03928C1739.47 14.9221 1756 52.3536 1772 85.4181C1788.67 118.898 1805.33 148.012 1821.33 166.728C1838 185.443 1854.67 192.375 1870.67 177.818C1887.2 163.262 1904 125.83 1912 107.6L1920 89.0919V200H1911.73C1903.6 200 1886.67 200 1870.67 200C1854.4 200 1837.33 200 1821.33 200C1805.07 200 1789.33 200 1772 200C1755.87 200 1740 200 1722.67 200C1706.67 200 1690.67 200 1673.33 200C1657.47 200 1641.33 200 1624 200C1608.27 200 1592 200 1576 200C1558.93 200 1542.67 200 1526.67 200C1509.73 200 1493.33 200 1477.33 200C1460.53 200 1444 200 1428 200C1411.33 200 1394.67 200 1378.67 200C1362 200 1345.33 200 1329.33 200C1312.8 200 1296 200 1280 200C1263.6 200 1246.67 200 1230.67 200C1214.4 200 1197.33 200 1181.33 200C1165.07 200 1149.33 200 1132 200C1115.87 200 1100 200 1082.67 200C1066.67 200 1050.67 200 1033.33 200C1017.47 200 1001.33 200 984 200C968.267 200 952 200 936 200C918.933 200 902.667 200 886.667 200C869.733 200 853.333 200 837.333 200C820.533 200 804 200 788 200C771.333 200 754.667 200 738.667 200C722 200 705.333 200 689.333 200C672.8 200 656 200 640 200C623.6 200 606.667 200 590.667 200C574.4 200 557.333 200 541.333 200C525.067 200 509.333 200 492 200C475.867 200 460 200 442.667 200C426.667 200 410.667 200 393.333 200C377.467 200 361.333 200 344 200C328.267 200 312 200 296 200C278.933 200 262.667 200 246.667 200C229.733 200 213.333 200 197.333 200C180.533 200 164 200 148 200C131.333 200 114.667 200 98.6667 200C82 200 65.3333 200 49.3333 200C32.8 200 16 200 8 200H0V111.274Z" fill="url(#paint0_linear_205_199)"/>
<defs>
<linearGradient id="paint0_linear_205_199" x1="960" y1="0" x2="960" y2="200" gradientUnits="userSpaceOnUse">
<stop stop-color="#BDAE7D"/>
<stop offset="1" stop-color="#BDAE7D" stop-opacity="0"/>
</linearGradient>
</defs>
</svg>
