<svg width="16" height="16" viewBox="0 0 16 16" fill="none" xmlns="http://www.w3.org/2000/svg">
<g clip-path="url(#clip0_305_535)">
<path d="M11.2358 8.09421C11.1642 7.93903 11.0698 7.79776 10.956 7.67377C10.609 7.29704 10.0696 7.08077 9.47576 7.08077C9.35428 7.08077 9.23244 7.09 9.11399 7.10823C8.5848 7.19002 8.16639 7.44395 8.00074 7.77883C7.77346 7.35875 7.18639 7.08008 6.51581 7.08008C6.37979 7.08008 6.244 7.09211 6.11195 7.1156C5.67982 7.19249 5.31176 7.38447 5.04811 7.67076C4.93383 7.79451 4.83931 7.93625 4.76793 8.09108C4.69272 8.25245 4.63145 8.41836 4.58541 8.58396C4.4337 9.12908 4.43928 9.69659 4.60146 10.2703C4.72073 10.693 4.92558 11.1192 5.20959 11.5376C5.38479 11.7952 5.59057 12.0498 5.82178 12.2945C6.07812 12.5661 6.35888 12.818 6.6559 13.0438C7.19684 13.4545 7.72206 13.7221 7.99467 13.7253L7.99781 13.7255L7.99932 13.7253C8.1751 13.7253 8.47526 13.6064 8.82252 13.399C9.28694 13.1208 9.76847 12.7291 10.1785 12.296C10.4087 12.0526 10.6148 11.7984 10.7912 11.5393C11.0752 11.1221 11.28 10.696 11.4001 10.273C11.5626 9.69929 11.5686 9.13189 11.4178 8.58677C11.3721 8.42248 11.3109 8.25692 11.2358 8.09425L11.2358 8.09421Z" fill="#BDAE7D"/>
<path d="M15.5585 6.09325L14.1421 4.96333V2.53101H15.1638C15.4911 2.53101 15.7562 2.2508 15.7562 1.9048C15.7562 1.55894 15.491 1.27859 15.1638 1.27859H14.1421V0.626209C14.1421 0.280439 13.8768 0 13.5495 0C13.2223 0 12.957 0.280439 12.957 0.626209V1.27868H11.9354C11.608 1.27868 11.343 1.55889 11.343 1.90489C11.343 2.25066 11.6082 2.5311 11.9354 2.5311H12.957V4.01777L8.30567 0.311489C8.12501 0.167647 7.86949 0.167647 7.68881 0.311606L0.441676 6.09328C-0.0481034 6.48392 -0.145303 7.22018 0.224395 7.73783C0.44272 8.04352 0.775334 8.20463 1.11199 8.20463C1.34497 8.20463 1.58013 8.1274 1.78046 7.96755L1.92577 7.85151V15.4917C1.92577 15.7723 2.15212 16 2.43148 16H13.5874C13.8666 16 14.0931 15.7725 14.0931 15.4917L14.093 7.86677L14.2195 7.96761C14.4198 8.12758 14.6549 8.2047 14.888 8.2047C15.2246 8.2047 15.5572 8.04368 15.7756 7.7379C16.1453 7.22037 16.0482 6.48411 15.5583 6.09347L15.5585 6.09325ZM12.9017 14.2309C12.9017 14.5123 12.6746 14.7404 12.3948 14.7404L3.62421 14.7403C3.34427 14.7403 3.11735 14.512 3.11735 14.2308L3.11747 7.19216C3.11747 7.02296 3.19385 6.86299 3.32498 6.75713L5.66495 4.86884L7.38434 3.49704C7.38434 3.49704 7.38446 3.49692 7.38469 3.49669L7.67521 3.26497C7.86552 3.11319 8.13467 3.11319 8.32484 3.26497L8.79194 3.63772C8.79206 3.63772 8.79206 3.63808 8.79229 3.63808L11.9901 6.18913L12.6938 6.757C12.825 6.86287 12.9013 7.02284 12.9013 7.19203L12.9012 14.231L12.9017 14.2309Z" fill="#BDAE7D"/>
</g>
<defs>
<clipPath id="clip0_305_535">
<rect width="16" height="16" fill="white"/>
</clipPath>
</defs>
</svg>
